<svg width="37" height="37" viewBox="0 0 37 37" fill="none" xmlns="http://www.w3.org/2000/svg">
<path fill-rule="evenodd" clip-rule="evenodd" d="M0 18.5C0 8.3 8.3 0 18.5 0C28.8 0 37 8.3 37 18.5C37 28.7 28.7 37 18.5 37C8.3 37 0 28.7 0 18.5ZM27.8 25C28.1 24.4 28.3 23.7 28.3 22.6C28.3846 21.6689 28.3976 21.311 28.4603 19.5854C28.4717 19.2724 28.4846 18.9145 28.5 18.5C28.5 16.8519 28.4627 16.0981 28.4337 15.5106C28.4152 15.1357 28.4 14.8286 28.4 14.4C28.3 13.3 28.1 12.6 27.9 12C27.7 11.3 27.3 10.7 26.8 10.2C26.3 9.7 25.8 9.4 25.1 9.1C24.5 8.8 23.8 8.6 22.7 8.6C21.6 8.5 21.3 8.5 18.6 8.5C16.9519 8.5 16.1981 8.53726 15.6106 8.56629C15.2357 8.58482 14.9286 8.6 14.5 8.6C13.4 8.7 12.7 8.9 12.1 9.1C11.4 9.3 10.8 9.7 10.3 10.2C9.8 10.8 9.5 11.4 9.2 12C8.9 12.6 8.7 13.3 8.7 14.4C8.6 15.5 8.6 15.8 8.6 18.5C8.6 20.1481 8.63726 20.9019 8.66629 21.4894C8.68482 21.8643 8.7 22.1714 8.7 22.6C8.8 23.7 9 24.4 9.2 25C9.4 25.7 9.8 26.3 10.3 26.8C10.8 27.3 11.4 27.6 12 27.9C12.6 28.2 13.3 28.4 14.4 28.4C15.5 28.5 15.8 28.5 18.5 28.5C20.1481 28.5 20.9019 28.4627 21.4894 28.4337C21.8643 28.4152 22.1714 28.4 22.6 28.4C23.7 28.3 24.4 28.1 25 27.9C25.6 27.7 26.2 27.3 26.7 26.8C27.2 26.2 27.5 25.6 27.8 25Z" fill="black"/>
<path fill-rule="evenodd" clip-rule="evenodd" d="M26.2001 12.7C26.0001 12.2 25.8001 11.9 25.5001 11.6C25.2001 11.3 24.8001 11 24.4001 10.9C24.1001 10.8 23.5001 10.6 22.6001 10.6C22.2173 10.6 21.9224 10.5853 21.5585 10.5673C20.9715 10.5381 20.2049 10.5 18.6001 10.5H17.7001C15.9001 10.5 15.5001 10.5 14.6001 10.6C13.6788 10.6 13.1819 10.7698 12.8748 10.8747C12.8485 10.8836 12.8237 10.8921 12.8001 10.9C12.3001 11.1 12.0001 11.3 11.7001 11.6C11.4001 11.9 11.1001 12.3 11.0001 12.7C10.9001 13 10.7001 13.6 10.7001 14.5C10.7001 14.8828 10.6854 15.1777 10.6674 15.5416C10.6382 16.1286 10.6001 16.8952 10.6001 18.5C10.6001 21.1 10.6001 21.5 10.7001 22.5C10.7001 23.4213 10.8699 23.9182 10.9748 24.2253L10.9748 24.2253C10.9837 24.2516 10.9922 24.2764 11.0001 24.3C11.2001 24.8 11.4001 25.1 11.7001 25.4C12.0001 25.7 12.4001 26 12.8001 26.1C13.1001 26.2 13.7001 26.4 14.6001 26.4C14.9829 26.4 15.2777 26.4147 15.6417 26.4327C16.2287 26.4619 16.9953 26.5 18.6001 26.5C21.2001 26.5 21.6001 26.5 22.6001 26.4C23.5214 26.4 24.0183 26.2302 24.3254 26.1253L24.3254 26.1253C24.3517 26.1164 24.3765 26.1079 24.4001 26.1C24.9001 25.9 25.2001 25.7 25.5001 25.4C25.8001 25.1 26.1001 24.7 26.2001 24.3C26.3001 24 26.5001 23.4 26.5001 22.5C26.5001 22.1172 26.5147 21.8223 26.5328 21.4584C26.562 20.8714 26.6001 20.1048 26.6001 18.5C26.6001 15.9 26.6001 15.6 26.5001 14.5C26.5001 13.6 26.4001 13 26.2001 12.7ZM18.5001 23.6C15.7001 23.6 13.4001 21.3 13.4001 18.5C13.4001 15.7 15.7001 13.4 18.5001 13.4C21.3001 13.4 23.6001 15.7 23.6001 18.5C23.6001 21.3 21.3001 23.6 18.5001 23.6ZM22.6001 13.2C22.6001 13.9 23.1001 14.4 23.8001 14.4C24.5001 14.4 25.0001 13.9 25.0001 13.2C25.0001 12.5 24.5001 12 23.8001 12C23.1001 12 22.6001 12.5 22.6001 13.2Z" fill="black"/>
<path d="M18.5 15.2C16.7 15.2 15.2 16.7 15.2 18.5C15.2 20.3 16.7 21.8 18.5 21.8C20.3 21.8 21.8 20.3 21.8 18.5C21.8 16.7 20.3 15.2 18.5 15.2Z" fill="black"/>
</svg>
