<svg width="25" height="17" viewBox="0 0 25 17" fill="none" xmlns="http://www.w3.org/2000/svg">
<path d="M11.9999 6.18419C11.9999 2.76862 9.32123 0 6.01631 0C2.71139 0 0.313128 2.67267 0.0326729 6.07636C-0.394311 11.2692 3.42217 15.6171 8.05628 17C6.47652 16.0133 5.37527 14.2966 5.19097 12.2993C5.46113 12.3395 5.73474 12.3668 6.01519 12.3668C9.32117 12.3679 12 9.59944 12 6.18378L11.9999 6.18419Z" fill="white"/>
<path d="M24.9999 6.18419C24.9999 2.76862 22.3212 0 19.0163 0C15.7115 0 13.3131 2.67267 13.0327 6.07636C12.6057 11.2692 16.4222 15.6171 21.0574 17C19.4777 16.0133 18.3764 14.2966 18.1921 12.2993C18.4623 12.3395 18.7371 12.3668 19.0164 12.3668C22.3212 12.3679 25 9.59944 25 6.18378L24.9999 6.18419Z" fill="white"/>
</svg>
